<?xml version="1.0" encoding="UTF-8"?>
<svg version="1.1" xmlns="http://www.w3.org/2000/svg" width="112" height="115">
<path d="M0 0 C11.07871123 0.246368 18.50342741 2.60783471 26.73486328 10.44482422 C36.21914129 20.52783993 37.51782624 30.09877615 37.32867432 43.38568115 C37.02520805 53.28553103 34.60630655 60.9573413 29.60986328 69.56982422 C29.02193671 70.93132207 28.44042617 72.29562282 27.86767578 73.66357422 C24.99269192 79.40759575 20.03143441 83.64543817 15.48486328 88.06982422 C14.10621094 89.44654297 14.10621094 89.44654297 12.69970703 90.85107422 C5.89097377 97.56982422 5.89097377 97.56982422 3.60986328 97.56982422 C3.11486328 99.05482422 3.11486328 99.05482422 2.60986328 100.56982422 C-1.80075841 100.74414952 -6.20950656 100.87047471 -10.62255859 100.9543457 C-12.1203101 100.98933839 -13.61782612 101.03695249 -15.11474609 101.09790039 C-29.14799869 101.65455274 -29.14799869 101.65455274 -33.92529297 97.52294922 C-35.10815886 96.23024344 -36.26329616 94.91164771 -37.39013672 93.56982422 C-38.72180753 92.28383034 -40.06447479 91.00913349 -41.41748047 89.74560547 C-42.72345159 88.46046739 -44.02684233 87.17270184 -45.32763672 85.88232422 C-46.33407227 84.90682617 -46.33407227 84.90682617 -47.36083984 83.91162109 C-47.99828125 83.27933594 -48.63572266 82.64705078 -49.29248047 81.99560547 C-49.86474365 81.43268799 -50.43700684 80.86977051 -51.02661133 80.28979492 C-56.68684179 73.14989812 -54.30058569 57.78350416 -53.84033203 49.30664062 C-52.22094975 35.86506515 -44.53223719 24.18211065 -34.39013672 15.56982422 C-33.11549639 14.15412712 -31.86434312 12.71685323 -30.64013672 11.25732422 C-28.11646625 8.3120661 -25.51539122 5.89144185 -22.39013672 3.56982422 C-17.66170951 -1.15860299 -6.52507693 0.03308393 0 0 Z M2.60986328 20.56982422 C-8.61203099 18.82802875 -25.63938339 18.33260849 -35.72607422 23.99169922 C-41.46340571 28.31728037 -44.19696074 33.69542001 -45.74169922 40.62060547 C-47.00218591 50.94740527 -43.48056717 58.89334199 -37.19555664 66.96313477 C-29.60413112 75.68197699 -21.94902734 80.56132388 -10.29541016 81.60873413 C-0.10769949 82.15904764 12.10564895 82.06564226 20.72827148 75.98803711 C26.010387 70.99203947 27.25917392 65.34422367 27.54711914 58.23876953 C27.38650473 50.70815799 26.66281365 44.35685727 21.29736328 38.69482422 C17.95627858 35.96673192 17.05931558 35.56982422 12.60986328 35.56982422 C12.58923828 34.88919922 12.56861328 34.20857422 12.54736328 33.50732422 C11.32898729 29.68974611 9.2025468 27.89543198 6.30126953 25.21826172 C4.60986328 23.56982422 4.60986328 23.56982422 2.60986328 20.56982422 Z M33.60986328 26.56982422 C34.60986328 28.56982422 34.60986328 28.56982422 34.60986328 28.56982422 Z M-47.39013672 63.56982422 C-46.39013672 65.56982422 -46.39013672 65.56982422 -46.39013672 65.56982422 Z M-50.39013672 69.56982422 C-49.39013672 71.56982422 -49.39013672 71.56982422 -49.39013672 71.56982422 Z M4.60986328 94.56982422 C5.60986328 96.56982422 5.60986328 96.56982422 5.60986328 96.56982422 Z " fill="#282828" transform="translate(65.39013671875,9.43017578125)"/>
<path d="M0 0 C3.88638286 3.1120468 7.13985907 6.01026208 10.05859375 10.05078125 C14.76086264 16.18466751 19.04180627 21.15099468 26.86767578 22.82958984 C36.17953941 23.95288714 45.6606599 23.56416683 55 23 C54.01 24.98 53.02 26.96 52 29 C53.32 28.67 54.64 28.34 56 28 C56.4375 30.0625 56.4375 30.0625 56 33 C53.92982634 35.62982691 51.63309548 37.93284133 49 40 C48.34 40 47.68 40 47 40 C46.67 40.99 46.34 41.98 46 43 C41.58937831 43.1743253 37.18063016 43.30065049 32.76757812 43.38452148 C31.26982662 43.41951417 29.7723106 43.46712827 28.27539062 43.52807617 C14.24179303 44.08474221 14.24179303 44.08474221 9.47265625 39.953125 C8.28898774 38.6588256 7.1313526 37.34026989 6 36 C4.64566028 34.71300043 3.27951337 33.43832147 1.90234375 32.17578125 C0.57816192 30.89066083 -0.74345806 29.60289542 -2.0625 28.3125 C-2.75021484 27.66216797 -3.43792969 27.01183594 -4.14648438 26.34179688 C-4.79037109 25.70951172 -5.43425781 25.07722656 -6.09765625 24.42578125 C-6.68039307 23.86286377 -7.26312988 23.29994629 -7.86352539 22.7199707 C-9 21 -9 21 -8.796875 19.04272461 C-7.9807065 16.95054267 -7.11980967 14.91769644 -6.15234375 12.890625 C-5.79462891 12.13652344 -5.43691406 11.38242188 -5.06835938 10.60546875 C-4.69517578 9.82816406 -4.32199219 9.05085938 -3.9375 8.25 C-3.56044922 7.45722656 -3.18339844 6.66445312 -2.79492188 5.84765625 C-1.86654161 3.89688254 -0.93370456 1.94823094 0 0 Z M48 37 C49 39 49 39 49 39 Z " fill="#3D3D3D" transform="translate(22,67)"/>
<path d="M0 0 C0.66 0.66 1.32 1.32 2 2 C1.3503125 3.051875 1.3503125 3.051875 0.6875 4.125 C-1.41029865 7.69902733 -3.23597417 11.37644511 -5 15.125 C-6 17 -6 17 -7.55078125 18.77563477 C-9.37153995 21.57026626 -9.30838094 23.15600775 -9.1875 26.46484375 C-9.16429687 27.51220703 -9.14109375 28.55957031 -9.1171875 29.63867188 C-9.03920109 31.8339893 -8.96107658 34.02930183 -8.8828125 36.22460938 C-8.85960937 37.27326172 -8.83640625 38.32191406 -8.8125 39.40234375 C-8.77769531 40.35616943 -8.74289063 41.30999512 -8.70703125 42.29272461 C-9.05762596 45.53251185 -10.21450183 47.30854141 -12 50 C-12.33 50.99 -12.66 51.98 -13 53 C-13.99 53.495 -13.99 53.495 -15 54 C-15.65555119 56.52733235 -15.65555119 56.52733235 -16 59 C-16.99 59 -17.98 59 -19 59 C-20.35858449 39.06225 -19.95429242 21.66075319 -6.33203125 5.71484375 C-4.30667306 3.63152619 -2.30912214 1.75694076 0 0 Z " fill="#2B2B2B" transform="translate(31,25)"/>
<path d="M0 0 C1.12849651 0.94791448 2.25427841 1.89906134 3.37890625 2.8515625 C4.00611572 3.38088379 4.6333252 3.91020508 5.27954102 4.45556641 C7.15044638 6.13505375 8.62425719 7.89592276 10 10 C9.01 11.485 9.01 11.485 8 13 C8.66 13 9.32 13 10 13 C10 13.66 10 14.32 10 15 C10.66 15 11.32 15 12 15 C12 15.66 12 16.32 12 17 C12.66 17 13.32 17 14 17 C14 17.66 14 18.32 14 19 C14.66 19 15.32 19 16 19 C16 19.66 16 20.32 16 21 C16.66 21 17.32 21 18 21 C18 21.66 18 22.32 18 23 C18.66 23 19.32 23 20 23 C20.33 23.99 20.66 24.98 21 26 C17.31930113 24.46356148 15.01224796 22.21849055 12.25 19.375 C11.45078125 18.55773437 10.6515625 17.74046875 9.828125 16.8984375 C9.22484375 16.27195312 8.6215625 15.64546875 8 15 C11.50897269 19.18423892 15.08060535 23.19588166 19 27 C18.67 27.99 18.34 28.98 18 30 C14.04 26.04 10.08 22.08 6 18 C4.92459025 22.30163901 5.00946628 22.48729344 7 26 C7 26.66 7 27.32 7 28 C7.31478446 29.33783393 7.64587656 30.67203709 8 32 C6.02 30.35 4.04 28.7 2 27 C1.01 27.66 0.02 28.32 -1 29 C-2.36877116 27.76600937 -3.71969166 26.51219377 -5.0625 25.25 C-5.81660156 24.55390625 -6.57070312 23.8578125 -7.34765625 23.140625 C-7.89292969 22.43421875 -8.43820312 21.7278125 -9 21 C-8.56008559 18.06418233 -7.42426018 15.55559275 -6.15234375 12.890625 C-5.79462891 12.13652344 -5.43691406 11.38242188 -5.06835938 10.60546875 C-4.69517578 9.82816406 -4.32199219 9.05085938 -3.9375 8.25 C-3.56044922 7.45722656 -3.18339844 6.66445312 -2.79492188 5.84765625 C-1.86654161 3.89688254 -0.93370456 1.94823094 0 0 Z " fill="#2B2B2B" transform="translate(22,67)"/>
<path d="M0 0 C0.66 0.33 1.32 0.66 2 1 C1.67 8.26 1.34 15.52 1 23 C2.98 21.35 4.96 19.7 7 18 C3.02290513 31.38631933 -2.8856127 39.61152566 -13 49 C-13.66 48.01 -14.32 47.02 -15 46 C-17.22498915 45.58429992 -17.22498915 45.58429992 -19.7890625 45.70703125 C-21.20058594 45.7215332 -21.20058594 45.7215332 -22.640625 45.73632812 C-23.62546875 45.76146484 -24.6103125 45.78660156 -25.625 45.8125 C-26.61757812 45.82603516 -27.61015625 45.83957031 -28.6328125 45.85351562 C-31.08908072 45.88894257 -33.54427285 45.93833804 -36 46 C-36 45.67 -36 45.34 -36 45 C-29.73 44.67 -23.46 44.34 -17 44 C-22.94 43.67 -28.88 43.34 -35 43 C-35 42.67 -35 42.34 -35 42 C-28.73 41.67 -22.46 41.34 -16 41 C-26.23 40.67 -36.46 40.34 -47 40 C-47 39.67 -47 39.34 -47 39 C-46.03288086 39.03254883 -45.06576172 39.06509766 -44.06933594 39.09863281 C-40.42332819 39.20490273 -36.7802431 39.22967652 -33.1328125 39.23193359 C-31.56544161 39.24381735 -29.9980646 39.27676434 -28.43164062 39.33251953 C-20.52718863 39.6003814 -13.82582741 39.51950356 -7.52748108 34.26052856 C-3.02322756 29.88145428 -0.33768283 26.08831413 0.13671875 19.6484375 C0.04933181 17.5537594 -0.10080454 15.46078471 -0.3125 13.375 C-0.43576233 11.25793765 -0.55696588 9.14075408 -0.67578125 7.0234375 C-0.75739502 6.10481934 -0.83900879 5.18620117 -0.9230957 4.23974609 C-1 2 -1 2 0 0 Z " fill="#808080" transform="translate(92,50)"/>
<path d="M0 0 C0.33 0 0.66 0 1 0 C1.198996 4.2864503 1.34347584 8.57040251 1.43945312 12.86010742 C1.47948628 14.31631327 1.53393633 15.77220151 1.60351562 17.22729492 C2.16711111 29.32387744 2.16711111 29.32387744 -0.78125 33.55810547 C-5.79502866 38 -5.79502866 38 -8 38 C-7.67 30.08 -7.34 22.16 -7 14 C-7.99 15.32 -8.98 16.64 -10 18 C-11.32 16.68 -12.64 15.36 -14 14 C-13.375 12.125 -13.375 12.125 -12 10 C-8.875 8.75 -8.875 8.75 -6 8 C-6 7.34 -6 6.68 -6 6 C-4.125 3.875 -4.125 3.875 -2 2 C-1.34 2 -0.68 2 0 2 C0 1.34 0 0.68 0 0 Z " fill="#3E3E3E" transform="translate(100,36)"/>
<path d="M0 0 C4.91935902 4.11619836 9.52647956 8.40410362 14 13 C13.01 13.495 13.01 13.495 12 14 C12 14.66 12 15.32 12 16 C11.34 16 10.68 16 10 16 C10 15.34 10 14.68 10 14 C9.34 14 8.68 14 8 14 C8 13.34 8 12.68 8 12 C7.34 12 6.68 12 6 12 C6 11.34 6 10.68 6 10 C5.34 10 4.68 10 4 10 C4 9.34 4 8.68 4 8 C3.01 8.495 3.01 8.495 2 9 C4.97 11.97 7.94 14.94 11 18 C8 18 8 18 5.95703125 16.25 C5.24933594 15.5075 4.54164062 14.765 3.8125 14 C3.09707031 13.2575 2.38164063 12.515 1.64453125 11.75 C1.10183594 11.1725 0.55914062 10.595 0 10 C-0.33 10.66 -0.66 11.32 -1 12 C-0.34 12 0.32 12 1 12 C1 12.66 1 13.32 1 14 C1.66 14 2.32 14 3 14 C5.125 15.875 5.125 15.875 7 18 C7 18.66 7 19.32 7 20 C6.34 20.33 5.68 20.66 5 21 C5.515625 21.4125 6.03125 21.825 6.5625 22.25 C7.2740625 23.11625 7.2740625 23.11625 8 24 C7.6875 26.1875 7.6875 26.1875 7 28 C2.92623969 26.38989473 0.23492931 23.46177729 -2.75 20.375 C-3.25660156 19.859375 -3.76320313 19.34375 -4.28515625 18.8125 C-5.52803902 17.54616661 -6.76465276 16.2736856 -8 15 C-7.23856331 13.05878789 -6.46548643 11.12213883 -5.6875 9.1875 C-5.25824219 8.10855469 -4.82898438 7.02960937 -4.38671875 5.91796875 C-3.14663459 3.30855223 -2.18468549 1.82591016 0 0 Z " fill="#595959" transform="translate(78,11)"/>
<path d="M0 0 C0.66 0.66 1.32 1.32 2 2 C3.93257855 2.36831081 3.93257855 2.36831081 6.1328125 2.4140625 C7.34130859 2.47207031 7.34130859 2.47207031 8.57421875 2.53125 C9.83685547 2.57765625 9.83685547 2.57765625 11.125 2.625 C11.97449219 2.66367188 12.82398437 2.70234375 13.69921875 2.7421875 C15.79911684 2.83656494 17.89952891 2.91937586 20 3 C20 3.33 20 3.66 20 4 C13.73 4.33 7.46 4.66 1 5 C6.61 5.33 12.22 5.66 18 6 C18 6.33 18 6.66 18 7 C8.595 7.495 8.595 7.495 -1 8 C4.94 8.33 10.88 8.66 17 9 C17 9.33 17 9.66 17 10 C10.73 10 4.46 10 -2 10 C-2 10.66 -2 11.32 -2 12 C3.94 12 9.88 12 16 12 C16 12.33 16 12.66 16 13 C9.4 13 2.8 13 -4 13 C-4 13.66 -4 14.32 -4 15 C1.94 15 7.88 15 14 15 C14 15.33 14 15.66 14 16 C10.72946483 16.11608726 7.4594582 16.18720711 4.1875 16.25 C3.25873047 16.28351562 2.32996094 16.31703125 1.37304688 16.3515625 C0.0340332 16.37089844 0.0340332 16.37089844 -1.33203125 16.390625 C-2.15421143 16.41157227 -2.9763916 16.43251953 -3.82348633 16.45410156 C-6 16 -6 16 -7.79174805 14.16308594 C-9 12 -9 12 -9 9 C-7.03125 6.73828125 -7.03125 6.73828125 -4.5 4.3125 C-3.6646875 3.50425781 -2.829375 2.69601563 -1.96875 1.86328125 C-1.3190625 1.24839844 -0.669375 0.63351562 0 0 Z " fill="#818181" transform="translate(42,13)"/>
<path d="M0 0 C0.66 0.66 1.32 1.32 2 2 C1.3503125 3.051875 1.3503125 3.051875 0.6875 4.125 C-1.41029865 7.69902733 -3.23597417 11.37644511 -5 15.125 C-7.83152405 20.4341076 -12.01680212 24.67786808 -17 28 C-16.38192589 23.44714423 -14.57310072 19.69729182 -12.4375 15.6875 C-12.086875 15.02613037 -11.73625 14.36476074 -11.375 13.68334961 C-8.37515165 8.25012782 -4.78669157 3.98466612 0 0 Z " fill="#9F9F9F" transform="translate(31,25)"/>
<path d="M0 0 C0.33 0 0.66 0 1 0 C1.33 3.96 1.66 7.92 2 12 C2.33 12 2.66 12 3 12 C3.21758839 14.03686913 3.37193595 16.08054894 3.5 18.125 C3.5928125 19.26195313 3.685625 20.39890625 3.78125 21.5703125 C2.73332504 26.17070307 0.5358614 27.37890167 -3.26757812 29.92919922 C-3.83927734 30.28256348 -4.41097656 30.63592773 -5 31 C-4.89047884 27.20771856 -4.75976759 23.4164616 -4.625 19.625 C-4.5940625 18.54476562 -4.563125 17.46453125 -4.53125 16.3515625 C-4.49257812 15.3203125 -4.45390625 14.2890625 -4.4140625 13.2265625 C-4.3826416 12.27346191 -4.3512207 11.32036133 -4.31884766 10.33837891 C-4 8 -4 8 -2 6 C-1.67 9.3 -1.34 12.6 -1 16 C-0.67 10.72 -0.34 5.44 0 0 Z " fill="#393939" transform="translate(97,43)"/>
<path d="M0 0 C2.125 0.375 2.125 0.375 4 1 C3.54625 1.70125 3.0925 2.4025 2.625 3.125 C0.89062108 5.97295255 0.89062108 5.97295255 -0.0625 9.25 C-1 12 -1 12 -3 13 C-3.495 11.515 -3.495 11.515 -4 10 C-10.93 10 -17.86 10 -25 10 C-25 9.67 -25 9.34 -25 9 C-18.73 8.67 -12.46 8.34 -6 8 C-11.94 7.67 -17.88 7.34 -24 7 C-24 6.67 -24 6.34 -24 6 C-17.73 5.67 -11.46 5.34 -5 5 C-15.23 4.67 -25.46 4.34 -36 4 C-36 3.67 -36 3.34 -36 3 C-34.9805127 2.98018066 -33.96102539 2.96036133 -32.91064453 2.93994141 C-29.13467352 2.86397192 -25.35909227 2.77524191 -21.58349609 2.68261719 C-19.9481576 2.64429148 -18.31273376 2.60944493 -16.67724609 2.578125 C-14.3287909 2.53255158 -11.98092505 2.47454633 -9.6328125 2.4140625 C-8.89942657 2.40251129 -8.16604065 2.39096008 -7.41043091 2.37905884 C-3.25022895 2.38131903 -3.25022895 2.38131903 0 0 Z " fill="#979797" transform="translate(81,86)"/>
<path d="M0 0 C0.66 0 1.32 0 2 0 C2.08736736 3.72901814 2.14051482 7.45777165 2.1875 11.1875 C2.22520508 12.77014648 2.22520508 12.77014648 2.26367188 14.38476562 C2.27817383 15.91713867 2.27817383 15.91713867 2.29296875 17.48046875 C2.3086792 18.41785889 2.32438965 19.35524902 2.34057617 20.32104492 C1.93451997 23.51506266 0.75767531 25.3336135 -1 28 C-1.33 28.99 -1.66 29.98 -2 31 C-2.99 31.33 -3.98 31.66 -5 32 C-5.05407567 29.41638482 -5.093707 26.83390745 -5.125 24.25 C-5.14175781 23.52039063 -5.15851562 22.79078125 -5.17578125 22.0390625 C-5.23886395 15.09996547 -5.23886395 15.09996547 -3 12 C-2.34 11.67 -1.68 11.34 -1 11 C-0.08307039 8.24921116 0.10886083 6.64051087 0.0625 3.8125 C0.041875 2.554375 0.02125 1.29625 0 0 Z " fill="#7D7D7D" transform="translate(20,47)"/>
<path d="M0 0 C4.91935902 4.11619836 9.52647956 8.40410362 14 13 C13.01 13.495 13.01 13.495 12 14 C12 14.66 12 15.32 12 16 C11.34 16 10.68 16 10 16 C10 15.34 10 14.68 10 14 C9.34 14 8.68 14 8 14 C8 13.34 8 12.68 8 12 C7.34 12 6.68 12 6 12 C6 11.34 6 10.68 6 10 C5.34 10 4.68 10 4 10 C4 9.34 4 8.68 4 8 C3.01 8.495 3.01 8.495 2 9 C4.97 11.97 7.94 14.94 11 18 C8 18 8 18 5.58984375 15.8125 C4.71457031 14.884375 3.83929688 13.95625 2.9375 13 C1.32794713 11.29827009 -0.31073069 9.62262575 -2 8 C-2.66 8 -3.32 8 -4 8 C-3.48967606 4.22360282 -2.79233071 2.55277419 0 0 Z " fill="#787878" transform="translate(78,11)"/>
<path d="M0 0 C4.56030824 3.80475422 8.85089392 7.74969621 13 12 C13.66 11.34 14.32 10.68 15 10 C15.33 10.66 15.66 11.32 16 12 C15.34 13.32 14.68 14.64 14 16 C24.23 16 34.46 16 45 16 C45 16.33 45 16.66 45 17 C40.58937831 17.1743253 36.18063016 17.30065049 31.76757812 17.38452148 C30.26982662 17.41951417 28.7723106 17.46712827 27.27539062 17.52807617 C13.24000315 18.08481321 13.24000315 18.08481321 8.19140625 13.671875 C7.10179325 12.47083695 6.03621929 11.24739668 5 10 C3.81622382 8.9333527 2.6289357 7.87058481 1.4375 6.8125 C0.633125 5.884375 -0.17125 4.95625 -1 4 C-0.65234375 1.82421875 -0.65234375 1.82421875 0 0 Z " fill="#6F6F6F" transform="translate(23,93)"/>
<path d="M0 0 C3.76678971 1.58787388 6.37085951 3.94032891 9.3125 6.75 C10.66794922 8.01070313 10.66794922 8.01070313 12.05078125 9.296875 C14 12 14 12 13.85546875 15.203125 C13 18 13 18 12 20 C11.34 20 10.68 20 10 20 C8.99306069 18.33751662 7.99451442 16.66994576 7 15 C5.48336919 13.35239934 3.91908301 11.74751538 2.3125 10.1875 C1.50425781 9.39730469 0.69601563 8.60710937 -0.13671875 7.79296875 C-0.75160156 7.20128906 -1.36648437 6.60960938 -2 6 C-1.67 5.34 -1.34 4.68 -1 4 C2.63 7.63 6.26 11.26 10 15 C10.33 14.34 10.66 13.68 11 13 C10.34 13 9.68 13 9 13 C9 12.34 9 11.68 9 11 C8.34 11 7.68 11 7 11 C7 10.34 7 9.68 7 9 C6.34 9 5.68 9 5 9 C5 8.34 5 7.68 5 7 C4.34 7 3.68 7 3 7 C3 6.34 3 5.68 3 5 C2.34 5 1.68 5 1 5 C1 4.34 1 3.68 1 3 C0.34 3 -0.32 3 -1 3 C-0.67 2.01 -0.34 1.02 0 0 Z " fill="#606060" transform="translate(31,77)"/>
<path d="M0 0 C5.29012124 4.40843437 10.18808428 9.07559794 15 14 C14.67 14.99 14.34 15.98 14 17 C10.60807637 16.40716379 8.7892243 15.23256811 6.25 12.9375 C5.32960938 12.11572266 5.32960938 12.11572266 4.390625 11.27734375 C3.93171875 10.85582031 3.4728125 10.43429688 3 10 C2.67 10.66 2.34 11.32 2 12 C1.34 11.01 0.68 10.02 0 9 C0.66 9 1.32 9 2 9 C1.484375 8.443125 0.96875 7.88625 0.4375 7.3125 C-1 5 -1 5 -0.6875 2.25 C-0.460625 1.5075 -0.23375 0.765 0 0 Z " fill="#565656" transform="translate(27,84)"/>
<path d="M0 0 C7.92 0 15.84 0 24 0 C23.34 1.65 22.68 3.3 22 5 C15.73 5 9.46 5 3 5 C3 4.01 3 3.02 3 2 C2.01 2 1.02 2 0 2 C0 1.34 0 0.68 0 0 Z " fill="#232323" transform="translate(53,90)"/>
<path d="M0 0 C1.5 1.3125 1.5 1.3125 3 3 C3 3.99 3 4.98 3 6 C13.56 6 24.12 6 35 6 C35 6.33 35 6.66 35 7 C34.03698975 6.99363525 33.07397949 6.98727051 32.08178711 6.98071289 C28.48236727 6.9661983 24.884528 6.99776857 21.28540039 7.04272461 C19.73272095 7.05580218 18.17988558 7.05665557 16.62719727 7.04467773 C7.63325852 6.72775397 7.63325852 6.72775397 -0.62060547 9.62060547 C-2.330227 11.330227 -3.72163952 12.95322247 -5 15 C-5.66 14.34 -6.32 13.68 -7 13 C-6.566875 12.29875 -6.13375 11.5975 -5.6875 10.875 C-3.98438036 7.97338877 -2.47732693 5.02180509 -1 2 C-0.67 1.34 -0.34 0.68 0 0 Z " fill="#4B4B4B" transform="translate(33,24)"/>
<path d="M0 0 C0.66 0 1.32 0 2 0 C2 0.99 2 1.98 2 3 C2.99 3.33 3.98 3.66 5 4 C6.5 5.5234375 6.5 5.5234375 8 7.375 C9.51211428 9.22576487 10.9565978 10.95957735 12.70703125 12.58984375 C13.13371094 13.05519531 13.56039062 13.52054688 14 14 C13.6875 16.1875 13.6875 16.1875 13 18 C11.68 18 10.36 18 9 18 C8.814375 17.319375 8.62875 16.63875 8.4375 15.9375 C6.70768519 12.40266103 4.45772691 10.35591633 1.55859375 7.74609375 C-0.18149014 5.79667646 -0.69945271 4.57837937 -1 2 C-0.67 1.34 -0.34 0.68 0 0 Z " fill="#6D6D6D" transform="translate(69,27)"/>
<path d="M0 0 C0.66 0.33 1.32 0.66 2 1 C1.67 8.26 1.34 15.52 1 23 C3.97 20.525 3.97 20.525 7 18 C6.25 21.375 6.25 21.375 5 25 C3.25 26.0625 3.25 26.0625 1 27 C-1.10926144 28.90764086 -3.03206915 30.94261775 -5 33 C-5.66 32.67 -6.32 32.34 -7 32 C-6.57050049 31.63173096 -6.14100098 31.26346191 -5.69848633 30.8840332 C-1.96822854 27.22754523 -0.57784513 24.62915027 -0.44921875 19.35546875 C-0.49797402 17.29852326 -0.57814353 15.24211505 -0.6875 13.1875 C-0.75743803 11.11860596 -0.82401796 9.04959477 -0.88671875 6.98046875 C-0.95185669 5.61764771 -0.95185669 5.61764771 -1.01831055 4.22729492 C-1 2 -1 2 0 0 Z " fill="#C3C3C3" transform="translate(92,50)"/>
<path d="M0 0 C0.33 0 0.66 0 1 0 C1 10.23 1 20.46 1 31 C0.67 31 0.34 31 0 31 C-0.33 27.7 -0.66 24.4 -1 21 C-1.33 21 -1.66 21 -2 21 C-2 16.38 -2 11.76 -2 7 C-2.66 7 -3.32 7 -4 7 C-3.34 5.35 -2.68 3.7 -2 2 C-1.34 2 -0.68 2 0 2 C0 1.34 0 0.68 0 0 Z " fill="#979797" transform="translate(100,36)"/>
<path d="M0 0 C0.33 0 0.66 0 1 0 C1.33527603 4.10401041 1.66788868 8.20823238 2 12.3125 C2.09539063 13.47974609 2.19078125 14.64699219 2.2890625 15.84960938 C2.37929687 16.96787109 2.46953125 18.08613281 2.5625 19.23828125 C2.64628906 20.26993408 2.73007813 21.30158691 2.81640625 22.36450195 C2.94701894 24.23945404 3 26.12050406 3 28 C2.01 28.33 1.02 28.66 0 29 C0 19.43 0 9.86 0 0 Z " fill="#C2C2C2" transform="translate(12,55)"/>
<path d="M0 0 C12.66970387 -0.3690205 12.66970387 -0.3690205 18 2 C18 2.33 18 2.66 18 3 C11.73 3 5.46 3 -1 3 C-0.67 2.01 -0.34 1.02 0 0 Z " fill="#606060" transform="translate(45,11)"/>
<path d="M0 0 C3.90285767 1.58667578 6.33520982 4.13350481 9.25 7.125 C10.14203125 8.03507812 11.0340625 8.94515625 11.953125 9.8828125 C12.62859375 10.58148438 13.3040625 11.28015625 14 12 C13.67 12.99 13.34 13.98 13 15 C12.15695313 14.13375 11.31390625 13.2675 10.4453125 12.375 C9.33880643 11.24973959 8.23202112 10.12475372 7.125 9 C6.56941406 8.42765625 6.01382813 7.8553125 5.44140625 7.265625 C3.99865596 5.80549218 2.5025626 4.39850702 1 3 C0.34 3 -0.32 3 -1 3 C-0.67 2.01 -0.34 1.02 0 0 Z " fill="#222222" transform="translate(27,82)"/>
<path d="M0 0 C0 3.20410189 -0.33591742 4.3333335 -2 7 C-3.9453125 8.703125 -3.9453125 8.703125 -6.125 10.25 C-6.84945313 10.77078125 -7.57390625 11.2915625 -8.3203125 11.828125 C-8.87460938 12.21484375 -9.42890625 12.6015625 -10 13 C-9.39301257 8.87248551 -7.96189209 5.6678852 -6 2 C-4.68 2 -3.36 2 -2 2 C-1.34 1.34 -0.68 0.68 0 0 Z " fill="#BEBEBE" transform="translate(24,40)"/>
<path d="M0 0 C0.66 0.66 1.32 1.32 2 2 C1 3.66666667 0 5.33333333 -1 7 C-1.7425 8.3921875 -1.7425 8.3921875 -2.5 9.8125 C-2.995 10.534375 -3.49 11.25625 -4 12 C-4.99 12 -5.98 12 -7 12 C-6.34 11.34 -5.68 10.68 -5 10 C-5.66 9.01 -6.32 8.02 -7 7 C-4.69 4.69 -2.38 2.38 0 0 Z " fill="#B3B3B3" transform="translate(31,25)"/>
<path d="M0 0 C0.33 0 0.66 0 1 0 C1.16808419 2.10405391 1.33441948 4.20824758 1.5 6.3125 C1.5928125 7.48425781 1.685625 8.65601562 1.78125 9.86328125 C1.92364989 11.905194 2 13.9531279 2 16 C1.01 16.66 0.02 17.32 -1 18 C-1.02690844 15.37493198 -1.04679404 12.75013827 -1.0625 10.125 C-1.07087891 9.37863281 -1.07925781 8.63226563 -1.08789062 7.86328125 C-1.11328125 2.2265625 -1.11328125 2.2265625 0 0 Z " fill="#969696" transform="translate(16,61)"/>
<path d="M0 0 C5.03163018 4.29785078 10.02718443 8.63425542 15 13 C14.01 13.33 13.02 13.66 12 14 C9.95703125 12.56640625 9.95703125 12.56640625 7.8125 10.5625 C7.09707031 9.90378906 6.38164063 9.24507812 5.64453125 8.56640625 C5.10183594 8.04949219 4.55914062 7.53257813 4 7 C3.67 7.66 3.34 8.32 3 9 C2.34 8.01 1.68 7.02 1 6 C1.66 6 2.32 6 3 6 C2.2575 5.071875 2.2575 5.071875 1.5 4.125 C0 2 0 2 0 0 Z " fill="#8D8D8D" transform="translate(26,87)"/>
<path d="M0 0 C0.66 0 1.32 0 2 0 C2.05383848 2.45862401 2.09359038 4.9160755 2.125 7.375 C2.14175781 8.07367188 2.15851563 8.77234375 2.17578125 9.4921875 C2.19344267 11.32897486 2.10303261 13.16601963 2 15 C1.34 15.66 0.68 16.32 0 17 C0 13.04 0 9.08 0 5 C-0.66 4.67 -1.32 4.34 -2 4 C-1.34 2.68 -0.68 1.36 0 0 Z " fill="#989898" transform="translate(95,44)"/>
<path d="M0 0 C0.66 0.66 1.32 1.32 2 2 C3.93257855 2.36831081 3.93257855 2.36831081 6.1328125 2.4140625 C7.34130859 2.47207031 7.34130859 2.47207031 8.57421875 2.53125 C9.83685547 2.57765625 9.83685547 2.57765625 11.125 2.625 C11.97449219 2.66367188 12.82398438 2.70234375 13.69921875 2.7421875 C15.79911684 2.83656494 17.89952891 2.91937586 20 3 C20 3.33 20 3.66 20 4 C16.54254978 4.22527296 13.08412975 4.42733544 9.625 4.625 C8.14773437 4.72167969 8.14773437 4.72167969 6.640625 4.8203125 C5.69960938 4.871875 4.75859375 4.9234375 3.7890625 4.9765625 C2.91975098 5.02893066 2.05043945 5.08129883 1.15478516 5.13525391 C-1 5 -1 5 -3 3 C-2.01 2.01 -1.02 1.02 0 0 Z " fill="#989898" transform="translate(42,13)"/>
<path d="M0 0 C1.14926266 0.95421808 2.29430541 1.91352045 3.4375 2.875 C4.07558594 3.40867187 4.71367187 3.94234375 5.37109375 4.4921875 C7 6 7 6 8 8 C4.6690697 8.37010337 3.37268777 8.27461204 0.625 6.25 C0.08875 5.5075 -0.4475 4.765 -1 4 C-0.6015625 1.859375 -0.6015625 1.859375 0 0 Z " fill="#5E5E5E" transform="translate(23,93)"/>
<path d="M0 0 C0 2.31 0 4.62 0 7 C-0.763125 6.814375 -1.52625 6.62875 -2.3125 6.4375 C-5.08967375 5.77180827 -5.08967375 5.77180827 -8 7 C-8 6.34 -8 5.68 -8 5 C-2.52380952 0 -2.52380952 0 0 0 Z " fill="#363636" transform="translate(21,48)"/>
<path d="M0 0 C4.13621084 3.3810038 7.81316569 6.66590534 11 11 C10.01 11 9.02 11 8 11 C8 10.34 8 9.68 8 9 C6.68 8.34 5.36 7.68 4 7 C4 6.34 4 5.68 4 5 C3.34 5 2.68 5 2 5 C2 4.34 2 3.68 2 3 C1.34 3 0.68 3 0 3 C0 2.01 0 1.02 0 0 Z " fill="#282828" transform="translate(77,20)"/>
<path d="M0 0 C1.32 0 2.64 0 4 0 C5.125 3.75 5.125 3.75 4 6 C2.68 6 1.36 6 0 6 C0 4.02 0 2.04 0 0 Z " fill="#7E7E7E" transform="translate(78,39)"/>
<path d="M0 0 C2.0625 0.4375 2.0625 0.4375 4 1 C1.25 5.875 1.25 5.875 -1 7 C-1.66 6.67 -2.32 6.34 -3 6 C-1.125 1.125 -1.125 1.125 0 0 Z " fill="#363636" transform="translate(81,86)"/>
<path d="M0 0 C3.65316671 1.24976756 4.78065836 1.67098753 7 5 C6.34 5 5.68 5 5 5 C5 5.66 5 6.32 5 7 C4.34 7 3.68 7 3 7 C3 6.34 3 5.68 3 5 C2.34 5 1.68 5 1 5 C0.67 3.35 0.34 1.7 0 0 Z " fill="#606060" transform="translate(85,20)"/>
<path d="M0 0 C1.39195915 4.17587745 -0.17676781 6.13474776 -2 10 C-2.66 9.67 -3.32 9.34 -4 9 C-4.25 6.75 -4.25 6.75 -4 4 C-2 1.6875 -2 1.6875 0 0 Z " fill="#939393" transform="translate(95,74)"/>
<path d="M0 0 C1.9375 0.6875 1.9375 0.6875 4 2 C4.75 4.625 4.75 4.625 5 7 C4.34 7 3.68 7 3 7 C3 6.34 3 5.68 3 5 C2.34 5 1.68 5 1 5 C1 4.34 1 3.68 1 3 C0.34 3 -0.32 3 -1 3 C-0.67 2.01 -0.34 1.02 0 0 Z " fill="#494949" transform="translate(31,77)"/>
<path d="M0 0 C1.32 0 2.64 0 4 0 C4.66 1.32 5.32 2.64 6 4 C5.34 4 4.68 4 4 4 C3.67 4.66 3.34 5.32 3 6 C1.5 4.6875 1.5 4.6875 0 3 C0 2.01 0 1.02 0 0 Z " fill="#636363" transform="translate(74,35)"/>
<path d="M0 0 C2.88575819 0.39803561 3.82189513 0.79009069 5.75 3.0625 C6.1625 3.701875 6.575 4.34125 7 5 C4.625 4.75 4.625 4.75 2 4 C0.6875 1.9375 0.6875 1.9375 0 0 Z " fill="#727272" transform="translate(75,14)"/>
<path d="M0 0 C4.29425875 1.07356469 4.74740471 1.5084773 7 5 C6.67 5.66 6.34 6.32 6 7 C4.02 4.69 2.04 2.38 0 0 Z " fill="#292929" transform="translate(30,99)"/>
<path d="M0 0 C0.99 0 1.98 0 3 0 C3 0.99 3 1.98 3 3 C2.01 3 1.02 3 0 3 C0 2.01 0 1.02 0 0 Z " fill="#E2E2E2" transform="translate(103,67)"/>
<path d="M0 0 C0.99 0 1.98 0 3 0 C3 0.99 3 1.98 3 3 C2.01 3 1.02 3 0 3 C0 2.01 0 1.02 0 0 Z " fill="#DDDDDD" transform="translate(53,67)"/>
<path d="M0 0 C0.99 0 1.98 0 3 0 C3 0.99 3 1.98 3 3 C2.01 3 1.02 3 0 3 C0 2.01 0 1.02 0 0 Z " fill="#E7E7E7" transform="translate(103,42)"/>
<path d="M0 0 C0.99 0.33 1.98 0.66 3 1 C3 1.66 3 2.32 3 3 C2.01 3 1.02 3 0 3 C0 2.01 0 1.02 0 0 Z " fill="#E5E5E5" transform="translate(78,67)"/>
<path d="M0 0 C0.99 0 1.98 0 3 0 C2.67 0.99 2.34 1.98 2 3 C1.34 3 0.68 3 0 3 C0 2.01 0 1.02 0 0 Z " fill="#E0E0E0" transform="translate(28,42)"/>
<path d="M0 0 C0.99 0.33 1.98 0.66 3 1 C3 1.66 3 2.32 3 3 C2.01 3 1.02 3 0 3 C0 2.01 0 1.02 0 0 Z " fill="#E6E6E6" transform="translate(103,17)"/>
<path d="M0 0 C0.99 0 1.98 0 3 0 C2.67 0.99 2.34 1.98 2 3 C1.34 2.67 0.68 2.34 0 2 C0 1.34 0 0.68 0 0 Z " fill="#DEDEDE" transform="translate(53,42)"/>
<path d="M0 0 C0.66 0.66 1.32 1.32 2 2 C1.01 2 0.02 2 -1 2 C-0.67 1.34 -0.34 0.68 0 0 Z " fill="#D2D2D2" transform="translate(4,67)"/>
</svg>
